{
	"patcher" : 	{
		"fileversion" : 1,
		"appversion" : 		{
			"major" : 8,
			"minor" : 0,
			"revision" : 3,
			"architecture" : "x64",
			"modernui" : 1
		}
,
		"classnamespace" : "box",
		"rect" : [ 1585.0, 79.0, 1821.0, 1327.0 ],
		"bglocked" : 0,
		"openinpresentation" : 1,
		"default_fontsize" : 12.0,
		"default_fontface" : 0,
		"default_fontname" : "Arial",
		"gridonopen" : 1,
		"gridsize" : [ 15.0, 15.0 ],
		"gridsnaponopen" : 1,
		"objectsnaponopen" : 1,
		"statusbarvisible" : 2,
		"toolbarvisible" : 1,
		"lefttoolbarpinned" : 0,
		"toptoolbarpinned" : 0,
		"righttoolbarpinned" : 0,
		"bottomtoolbarpinned" : 0,
		"toolbars_unpinned_last_save" : 0,
		"tallnewobj" : 0,
		"boxanimatetime" : 200,
		"enablehscroll" : 1,
		"enablevscroll" : 1,
		"devicewidth" : 0.0,
		"description" : "",
		"digest" : "",
		"tags" : "",
		"style" : "",
		"subpatcher_template" : "",
		"boxes" : [ 			{
				"box" : 				{
					"activebgcolor" : [ 0.6, 0.6, 0.6, 0.06 ],
					"activebgoncolor" : [ 0.278431, 0.839216, 1.0, 1.0 ],
					"annotation" : "Sync",
					"bgcolor" : [ 0.6, 0.6, 0.6, 0.06 ],
					"bordercolor" : [ 1.0, 1.0, 1.0, 0.2 ],
					"focusbordercolor" : [ 1.0, 1.0, 1.0, 0.2 ],
					"id" : "obj-189",
					"ignoreclick" : 1,
					"maxclass" : "live.button",
					"numinlets" : 1,
					"numoutlets" : 1,
					"outlettype" : [ "" ],
					"parameter_enable" : 1,
					"patching_rect" : [ 79.0, 330.711669921875, 23.345901489257812, 25.0 ],
					"presentation" : 1,
					"presentation_rect" : [ 36.0, 124.0, 12.0, 12.0 ],
					"saved_attribute_attributes" : 					{
						"valueof" : 						{
							"parameter_speedlim" : 10.0,
							"parameter_shortname" : "Sub[1]",
							"parameter_enum" : [ "off", "on" ],
							"parameter_type" : 0,
							"parameter_unitstyle" : 0,
							"parameter_linknames" : 1,
							"parameter_exponent" : 2.0,
							"parameter_longname" : "Subdiv[9]",
							"parameter_initial_enable" : 1,
							"parameter_invisible" : 2,
							"parameter_mmax" : 1.0,
							"parameter_initial" : [ 0 ]
						}

					}
,
					"varname" : "Subdiv[9]"
				}

			}
, 			{
				"box" : 				{
					"fontname" : "Arial",
					"fontsize" : 12.0,
					"id" : "obj-92",
					"maxclass" : "newobj",
					"numinlets" : 1,
					"numoutlets" : 2,
					"outlettype" : [ "bang", "bang" ],
					"patching_rect" : [ 79.0, 306.711669921875, 44.0, 22.0 ],
					"text" : "edge~"
				}

			}
, 			{
				"box" : 				{
					"id" : "obj-35",
					"maxclass" : "newobj",
					"numinlets" : 2,
					"numoutlets" : 1,
					"outlettype" : [ "signal" ],
					"patching_rect" : [ 147.0, 657.0, 34.0, 22.0 ],
					"text" : "*~ 5."
				}

			}
, 			{
				"box" : 				{
					"activefgdialcolor" : [ 0.643137254901961, 0.643137254901961, 0.643137254901961, 1.0 ],
					"activeneedlecolor" : [ 0.92156862745098, 0.686274509803922, 0.254901960784314, 1.0 ],
					"id" : "obj-34",
					"maxclass" : "live.dial",
					"numinlets" : 1,
					"numoutlets" : 2,
					"outlettype" : [ "", "float" ],
					"parameter_enable" : 1,
					"patching_rect" : [ 268.25, 139.0, 44.0, 48.0 ],
					"presentation" : 1,
					"presentation_rect" : [ 66.888885498046875, 40.0, 44.0, 48.0 ],
					"prototypename" : "freq",
					"saved_attribute_attributes" : 					{
						"valueof" : 						{
							"parameter_shortname" : "fine",
							"parameter_type" : 0,
							"parameter_unitstyle" : 7,
							"parameter_linknames" : 1,
							"parameter_mmin" : -5.0,
							"parameter_exponent" : 4.5,
							"parameter_longname" : "fine",
							"parameter_initial_enable" : 1,
							"parameter_mmax" : 5.0,
							"parameter_initial" : [ 0 ]
						}

					}
,
					"textcolor" : [ 0.996078431372549, 0.996078431372549, 0.996078431372549, 1.0 ],
					"tricolor" : [ 0.996078431372549, 0.996078431372549, 0.996078431372549, 1.0 ],
					"varname" : "fine"
				}

			}
, 			{
				"box" : 				{
					"bgmode" : 0,
					"border" : 0,
					"clickthrough" : 0,
					"enablehscroll" : 0,
					"enablevscroll" : 0,
					"extract" : 1,
					"id" : "obj-33",
					"lockeddragscroll" : 0,
					"maxclass" : "bpatcher",
					"name" : "bp.Oscillator.maxpat",
					"numinlets" : 6,
					"numoutlets" : 2,
					"offset" : [ 0.0, 0.0 ],
					"outlettype" : [ "signal", "signal" ],
					"patching_rect" : [ 473.0, 864.0, 314.0, 116.0 ],
					"varname" : "bp.Oscillator",
					"viewvisibility" : 1
				}

			}
, 			{
				"box" : 				{
					"activefgdialcolor" : [ 0.643137254901961, 0.643137254901961, 0.643137254901961, 1.0 ],
					"activeneedlecolor" : [ 0.92156862745098, 0.686274509803922, 0.254901960784314, 1.0 ],
					"id" : "obj-27",
					"maxclass" : "live.dial",
					"numinlets" : 1,
					"numoutlets" : 2,
					"outlettype" : [ "", "float" ],
					"parameter_enable" : 1,
					"patching_rect" : [ 219.25, 139.0, 44.0, 48.0 ],
					"presentation" : 1,
					"presentation_rect" : [ 14.999998092651367, 40.0, 44.0, 48.0 ],
					"prototypename" : "freq",
					"saved_attribute_attributes" : 					{
						"valueof" : 						{
							"parameter_shortname" : "freq",
							"parameter_type" : 0,
							"parameter_unitstyle" : 3,
							"parameter_linknames" : 1,
							"parameter_mmin" : 10.0,
							"parameter_exponent" : 4.5,
							"parameter_longname" : "frequency",
							"parameter_initial_enable" : 1,
							"parameter_mmax" : 6000.0,
							"parameter_initial" : [ 261.625999999999976 ]
						}

					}
,
					"textcolor" : [ 0.996078431372549, 0.996078431372549, 0.996078431372549, 1.0 ],
					"tricolor" : [ 0.996078431372549, 0.996078431372549, 0.996078431372549, 1.0 ],
					"varname" : "frequency"
				}

			}
, 			{
				"box" : 				{
					"comment" : "frequency out (noise)",
					"id" : "obj-25",
					"index" : 0,
					"maxclass" : "outlet",
					"numinlets" : 1,
					"numoutlets" : 0,
					"patching_rect" : [ 519.0, 724.0, 30.0, 30.0 ]
				}

			}
, 			{
				"box" : 				{
					"comment" : "frequency out (noise)",
					"id" : "obj-18",
					"index" : 0,
					"maxclass" : "outlet",
					"numinlets" : 1,
					"numoutlets" : 0,
					"patching_rect" : [ 402.75, 724.0, 30.0, 30.0 ]
				}

			}
, 			{
				"box" : 				{
					"comment" : "frequency out (noise)",
					"id" : "obj-17",
					"index" : 0,
					"maxclass" : "outlet",
					"numinlets" : 1,
					"numoutlets" : 0,
					"patching_rect" : [ 274.75, 724.0, 30.0, 30.0 ]
				}

			}
, 			{
				"box" : 				{
					"fontface" : 0,
					"id" : "obj-13",
					"maxclass" : "comment",
					"numinlets" : 1,
					"numoutlets" : 0,
					"patching_rect" : [ 402.75, 702.0, 31.0, 20.0 ],
					"presentation" : 1,
					"presentation_rect" : [ 75.333335876464844, 105.0, 30.0, 20.0 ],
					"text" : "tri",
					"textcolor" : [ 0.996078431606293, 0.996078431606293, 0.996078431606293, 1.0 ],
					"textjustification" : 1
				}

			}
, 			{
				"box" : 				{
					"fontface" : 0,
					"id" : "obj-8",
					"maxclass" : "comment",
					"numinlets" : 1,
					"numoutlets" : 0,
					"patching_rect" : [ 519.0, 702.0, 31.0, 20.0 ],
					"presentation" : 1,
					"presentation_rect" : [ 223.0, 105.0, 30.0, 20.0 ],
					"text" : "sqr",
					"textcolor" : [ 0.996078431606293, 0.996078431606293, 0.996078431606293, 1.0 ],
					"textjustification" : 2
				}

			}
, 			{
				"box" : 				{
					"fontface" : 0,
					"id" : "obj-6",
					"maxclass" : "comment",
					"numinlets" : 1,
					"numoutlets" : 0,
					"patching_rect" : [ 274.75, 702.0, 31.0, 20.0 ],
					"presentation" : 1,
					"presentation_rect" : [ 150.666671752929688, 105.0, 30.0, 20.0 ],
					"text" : "saw",
					"textcolor" : [ 0.996078431606293, 0.996078431606293, 0.996078431606293, 1.0 ],
					"textjustification" : 1
				}

			}
, 			{
				"box" : 				{
					"id" : "obj-3",
					"maxclass" : "comment",
					"numinlets" : 1,
					"numoutlets" : 0,
					"patching_rect" : [ 677.75, 129.84588623046875, 36.0, 20.0 ],
					"presentation" : 1,
					"presentation_rect" : [ 70.888885498046875, 3.0, 36.0, 20.0 ],
					"text" : "fm",
					"textcolor" : [ 0.996078431606293, 0.996078431606293, 0.996078431606293, 1.0 ],
					"textjustification" : 1
				}

			}
, 			{
				"box" : 				{
					"comment" : "hard sync ???",
					"id" : "obj-5",
					"index" : 0,
					"maxclass" : "inlet",
					"numinlets" : 0,
					"numoutlets" : 1,
					"outlettype" : [ "" ],
					"patching_rect" : [ 680.75, 151.84588623046875, 30.0, 30.0 ]
				}

			}
, 			{
				"box" : 				{
					"id" : "obj-1",
					"maxclass" : "comment",
					"numinlets" : 1,
					"numoutlets" : 0,
					"patching_rect" : [ 147.25, 702.0, 30.0, 20.0 ],
					"presentation" : 1,
					"presentation_rect" : [ 3.0, 105.0, 30.0, 20.0 ],
					"text" : "sin",
					"textcolor" : [ 0.996078431606293, 0.996078431606293, 0.996078431606293, 1.0 ]
				}

			}
, 			{
				"box" : 				{
					"id" : "obj-32",
					"maxclass" : "newobj",
					"numinlets" : 2,
					"numoutlets" : 1,
					"outlettype" : [ "signal" ],
					"patching_rect" : [ 1073.0, 670.0, 60.0, 22.0 ],
					"text" : "*~ 1.4444"
				}

			}
, 			{
				"box" : 				{
					"id" : "obj-24",
					"maxclass" : "newobj",
					"numinlets" : 2,
					"numoutlets" : 1,
					"outlettype" : [ "signal" ],
					"patching_rect" : [ 896.5, 670.0, 60.0, 22.0 ],
					"text" : "*~ 1.4444"
				}

			}
, 			{
				"box" : 				{
					"id" : "obj-9",
					"maxclass" : "newobj",
					"numinlets" : 2,
					"numoutlets" : 1,
					"outlettype" : [ "signal" ],
					"patching_rect" : [ 985.0, 670.0, 34.0, 22.0 ],
					"text" : "*~ 2."
				}

			}
, 			{
				"box" : 				{
					"id" : "obj-22",
					"maxclass" : "comment",
					"numinlets" : 1,
					"numoutlets" : 0,
					"patching_rect" : [ 751.75, 129.84588623046875, 36.0, 20.0 ],
					"presentation" : 1,
					"presentation_rect" : [ 138.444442749023438, 3.0, 36.0, 20.0 ],
					"text" : "sync",
					"textcolor" : [ 0.996078431606293, 0.996078431606293, 0.996078431606293, 1.0 ],
					"textjustification" : 1
				}

			}
, 			{
				"box" : 				{
					"id" : "obj-19",
					"maxclass" : "comment",
					"numinlets" : 1,
					"numoutlets" : 0,
					"patching_rect" : [ 878.25, 129.84588623046875, 37.5, 20.0 ],
					"presentation" : 1,
					"presentation_rect" : [ 203.0, 3.0, 50.0, 20.0 ],
					"text" : "pwm",
					"textcolor" : [ 0.996078431606293, 0.996078431606293, 0.996078431606293, 1.0 ],
					"textjustification" : 2
				}

			}
, 			{
				"box" : 				{
					"id" : "obj-11",
					"maxclass" : "comment",
					"numinlets" : 1,
					"numoutlets" : 0,
					"patching_rect" : [ 147.25, 139.0, 44.0, 20.0 ],
					"presentation" : 1,
					"presentation_rect" : [ 3.0, 3.0, 39.333332061767578, 20.0 ],
					"text" : "v/oct",
					"textcolor" : [ 0.996078431606293, 0.996078431606293, 0.996078431606293, 1.0 ]
				}

			}
, 			{
				"box" : 				{
					"id" : "obj-15",
					"maxclass" : "newobj",
					"numinlets" : 2,
					"numoutlets" : 1,
					"outlettype" : [ "signal" ],
					"patching_rect" : [ 147.0, 616.0, 43.0, 22.0 ],
					"text" : "cycle~"
				}

			}
, 			{
				"box" : 				{
					"id" : "obj-14",
					"maxclass" : "newobj",
					"numinlets" : 3,
					"numoutlets" : 1,
					"outlettype" : [ "signal" ],
					"patching_rect" : [ 896.5, 639.0, 59.0, 22.0 ],
					"text" : "rect~ 440"
				}

			}
, 			{
				"box" : 				{
					"id" : "obj-12",
					"maxclass" : "newobj",
					"numinlets" : 3,
					"numoutlets" : 1,
					"outlettype" : [ "signal" ],
					"patching_rect" : [ 984.75, 639.0, 49.0, 22.0 ],
					"text" : "tri~ 440"
				}

			}
, 			{
				"box" : 				{
					"comment" : "hard sync ???",
					"id" : "obj-16",
					"index" : 0,
					"maxclass" : "inlet",
					"numinlets" : 0,
					"numoutlets" : 1,
					"outlettype" : [ "" ],
					"patching_rect" : [ 754.75, 151.84588623046875, 30.0, 30.0 ]
				}

			}
, 			{
				"box" : 				{
					"comment" : "duty cycle [0-1]",
					"id" : "obj-20",
					"index" : 0,
					"maxclass" : "inlet",
					"numinlets" : 0,
					"numoutlets" : 1,
					"outlettype" : [ "" ],
					"patching_rect" : [ 882.0, 151.84588623046875, 30.0, 30.0 ]
				}

			}
, 			{
				"box" : 				{
					"comment" : "frequency (Hz)",
					"id" : "obj-10",
					"index" : 0,
					"maxclass" : "inlet",
					"numinlets" : 0,
					"numoutlets" : 1,
					"outlettype" : [ "" ],
					"patching_rect" : [ 147.25, 161.0, 30.0, 30.0 ]
				}

			}
, 			{
				"box" : 				{
					"id" : "obj-21",
					"maxclass" : "newobj",
					"numinlets" : 2,
					"numoutlets" : 1,
					"outlettype" : [ "signal" ],
					"patching_rect" : [ 1073.0, 639.0, 60.0, 22.0 ],
					"text" : "saw~ 440"
				}

			}
, 			{
				"box" : 				{
					"comment" : "frequency out (noise)",
					"id" : "obj-23",
					"index" : 0,
					"maxclass" : "outlet",
					"numinlets" : 1,
					"numoutlets" : 0,
					"patching_rect" : [ 147.25, 724.0, 30.0, 30.0 ]
				}

			}
, 			{
				"box" : 				{
					"angle" : 0.0,
					"background" : 1,
					"bgcolor" : [ 0.145098039215686, 0.141176470588235, 0.141176470588235, 1.0 ],
					"border" : 3,
					"bordercolor" : [ 0.0, 0.976470588235294, 0.996078431372549, 1.0 ],
					"id" : "obj-130",
					"maxclass" : "panel",
					"mode" : 0,
					"numinlets" : 1,
					"numoutlets" : 0,
					"patching_rect" : [ 57.5, 50.711639404296875, 37.0, 5.0 ],
					"presentation" : 1,
					"presentation_rect" : [ 0.0, 0.0, 256.0, 128.0 ],
					"proportion" : 0.39
				}

			}
 ],
		"lines" : [ 			{
				"patchline" : 				{
					"destination" : [ "obj-12", 0 ],
					"order" : 1,
					"source" : [ "obj-10", 0 ]
				}

			}
, 			{
				"patchline" : 				{
					"destination" : [ "obj-14", 0 ],
					"order" : 2,
					"source" : [ "obj-10", 0 ]
				}

			}
, 			{
				"patchline" : 				{
					"destination" : [ "obj-21", 0 ],
					"order" : 0,
					"source" : [ "obj-10", 0 ]
				}

			}
, 			{
				"patchline" : 				{
					"destination" : [ "obj-92", 0 ],
					"order" : 3,
					"source" : [ "obj-10", 0 ]
				}

			}
, 			{
				"patchline" : 				{
					"destination" : [ "obj-9", 0 ],
					"source" : [ "obj-12", 0 ]
				}

			}
, 			{
				"patchline" : 				{
					"destination" : [ "obj-24", 0 ],
					"source" : [ "obj-14", 0 ]
				}

			}
, 			{
				"patchline" : 				{
					"destination" : [ "obj-35", 0 ],
					"source" : [ "obj-15", 0 ]
				}

			}
, 			{
				"patchline" : 				{
					"destination" : [ "obj-12", 2 ],
					"order" : 1,
					"source" : [ "obj-16", 0 ]
				}

			}
, 			{
				"patchline" : 				{
					"destination" : [ "obj-14", 2 ],
					"order" : 2,
					"source" : [ "obj-16", 0 ]
				}

			}
, 			{
				"patchline" : 				{
					"destination" : [ "obj-21", 1 ],
					"order" : 0,
					"source" : [ "obj-16", 0 ]
				}

			}
, 			{
				"patchline" : 				{
					"destination" : [ "obj-12", 1 ],
					"order" : 0,
					"source" : [ "obj-20", 0 ]
				}

			}
, 			{
				"patchline" : 				{
					"destination" : [ "obj-14", 1 ],
					"order" : 1,
					"source" : [ "obj-20", 0 ]
				}

			}
, 			{
				"patchline" : 				{
					"destination" : [ "obj-32", 0 ],
					"source" : [ "obj-21", 0 ]
				}

			}
, 			{
				"patchline" : 				{
					"destination" : [ "obj-23", 0 ],
					"source" : [ "obj-35", 0 ]
				}

			}
, 			{
				"patchline" : 				{
					"destination" : [ "obj-189", 0 ],
					"source" : [ "obj-92", 0 ]
				}

			}
 ],
		"parameters" : 		{
			"obj-33::obj-46" : [ "Offset", "Offset", 0 ],
			"obj-27" : [ "frequency", "freq", 0 ],
			"obj-33::obj-129" : [ "CV2", "CV2", 0 ],
			"obj-33::obj-36" : [ "PW", "PW", 0 ],
			"obj-33::obj-107" : [ "Linear", "Linear", 0 ],
			"obj-33::obj-53" : [ "Mute", "Mute", 0 ],
			"obj-189" : [ "Subdiv[9]", "Sub[1]", 0 ],
			"obj-33::obj-106" : [ "CV3", "CV3", 0 ],
			"obj-33::obj-11" : [ "PWM", "PWM", 0 ],
			"obj-34" : [ "fine", "fine", 0 ],
			"obj-33::obj-51" : [ "Freq", "Freq", 0 ],
			"obj-33::obj-4" : [ "Waveform", "Waveform", 0 ],
			"obj-33::obj-45" : [ "FreqMode", "FreqMode", 0 ],
			"parameterbanks" : 			{

			}

		}
,
		"dependency_cache" : [ 			{
				"name" : "bp.Oscillator.maxpat",
				"bootpath" : "C74:/packages/BEAP/clippings/BEAP/Oscillator",
				"type" : "JSON",
				"implicit" : 1
			}
, 			{
				"name" : "sine.svg",
				"bootpath" : "C74:/media/max/picts/m4l-picts",
				"type" : "svg",
				"implicit" : 1
			}
, 			{
				"name" : "updown.svg",
				"bootpath" : "C74:/media/max/picts/m4l-picts",
				"type" : "svg",
				"implicit" : 1
			}
, 			{
				"name" : "up.svg",
				"bootpath" : "C74:/media/max/picts/m4l-picts",
				"type" : "svg",
				"implicit" : 1
			}
, 			{
				"name" : "square.svg",
				"bootpath" : "C74:/media/max/picts/m4l-picts",
				"type" : "svg",
				"implicit" : 1
			}
 ],
		"autosave" : 0
	}

}
